<svg width="800" height="600" xmlns="http://www.w3.org/2000/svg">
<g>
  <title>background</title>
  <rect fill="#fff" id="canvas_background" height="602" width="802" y="-1" x="-1"/>
  <g display="none" overflow="visible" y="0" x="0" height="100%" width="100%" id="canvasGrid">
   <rect fill="url(#gridpattern)" stroke-width="0" y="0" x="0" height="100%" width="100%"/>
  </g>
 </g>
 <g>
  <title>Layer 1</title>
  <text style="cursor: move;" stroke="#000" transform="matrix(5.994824409484863,0,0,6.485714435577393,-422.06266260147095,-747.8571632876992) " xml:space="preserve" text-anchor="start" font-family="'Palatino Linotype', 'Book Antiqua', Palatino, serif" font-size="24" id="svg_43" y="162.18812" x="81.16379" stroke-width="0" fill="#000000">ohmypizza</text>
  <line stroke-linecap="undefined" stroke-linejoin="undefined" id="svg_44" y2="573.3335" x2="194.5" y1="57.3335" x1="142.5" stroke-width="1.5" stroke="#000" fill="none"/>
  <line stroke-linecap="undefined" stroke-linejoin="undefined" id="svg_45" y2="333.3335" x2="23.5" y1="321.3335" x1="154.5" stroke-width="1.5" stroke="#000" fill="none"/>
  <line stroke-linecap="undefined" stroke-linejoin="undefined" id="svg_46" y2="623.3335" x2="398.5" y1="257.3335" x1="42.5" stroke-width="1.5" stroke="#000" fill="none"/>
  <line stroke-linecap="undefined" stroke-linejoin="undefined" id="svg_47" y2="517.3335" x2="562.5" y1="38.3335" x1="449.5" stroke-width="1.5" stroke="#000" fill="none"/>
  <line stroke-linecap="undefined" stroke-linejoin="undefined" id="svg_48" y2="446.3335" x2="321.5" y1="387.3335" x1="694.5" stroke-width="1.5" stroke="#000" fill="none"/>
  <line stroke-linecap="undefined" stroke-linejoin="undefined" id="svg_49" y2="334.3335" x2="344.5" y1="302.3335" x1="241.5" stroke-width="1.5" stroke="#000" fill="none"/>
  <line stroke="#000" stroke-linecap="undefined" stroke-linejoin="undefined" id="svg_50" y2="342.3335" x2="498.49999" y1="135.3335" x1="756.5" stroke-width="1.5" fill="none"/>
  <rect id="svg_51" height="346" width="1" y="83.3335" x="295.5" fill-opacity="null" stroke-opacity="null" stroke-width="1.5" stroke="#000" fill="none"/>
  <rect id="svg_52" height="42" width="254" y="261.3335" x="302.5" fill-opacity="null" stroke-opacity="null" stroke-width="1.5" stroke="#000" fill="none"/>
  <rect id="svg_53" height="244" width="213" y="194.3335" x="447.5" fill-opacity="null" stroke-opacity="null" stroke-width="1.5" stroke="#000" fill="none"/>
  <rect id="svg_54" height="0" width="329" y="73.3335" x="-188.5" fill-opacity="null" stroke-opacity="null" stroke-width="1.5" stroke="#000" fill="none"/>
  <rect id="svg_55" height="311" width="170" y="180.3335" x="-21.5" fill-opacity="null" stroke-opacity="null" stroke-width="1.5" stroke="#000" fill="none"/>
 </g>
</svg>